<svg xmlns="http://www.w3.org/2000/svg" xmlns:xlink="http://www.w3.org/1999/xlink" width="200" zoomAndPan="magnify" viewBox="0 0 150 149.999998" height="200" preserveAspectRatio="xMidYMid meet" version="1.2"><defs><clipPath id="204ddbb0ca"><path d="M 36.910156 26.277344 L 113.410156 26.277344 L 113.410156 123.777344 L 36.910156 123.777344 Z M 36.910156 26.277344 "/></clipPath></defs><g id="d206f47154"><g clip-rule="nonzero" clip-path="url(#204ddbb0ca)"><path style=" stroke:none;fill-rule:nonzero;fill:#ff3131;fill-opacity:1;" d="M 74.117188 62.503906 C 74.097656 62.210938 74.121094 60.945312 74.132812 60.71875 C 74.140625 60.480469 74.160156 60.246094 74.175781 60.011719 L 74.191406 59.832031 C 74.199219 59.746094 74.222656 59.671875 74.253906 59.601562 C 74.320312 59.460938 74.4375 59.347656 74.578125 59.28125 C 74.640625 59.246094 74.714844 59.226562 74.792969 59.214844 C 74.835938 59.214844 74.875 59.210938 74.914062 59.214844 C 74.945312 59.21875 74.984375 59.21875 75.019531 59.230469 C 75.164062 59.261719 75.296875 59.34375 75.398438 59.46875 C 75.445312 59.53125 75.480469 59.597656 75.507812 59.671875 C 75.519531 59.707031 75.527344 59.746094 75.535156 59.785156 L 75.542969 59.886719 C 75.550781 59.964844 75.554688 60.042969 75.5625 60.121094 L 75.574219 60.238281 C 75.582031 60.320312 75.585938 60.398438 75.59375 60.480469 C 75.609375 60.632812 75.625 60.789062 75.632812 60.941406 C 75.652344 61.164062 75.660156 61.386719 75.671875 61.609375 L 75.675781 61.71875 C 75.695312 62.15625 75.71875 62.605469 75.71875 63.054688 C 75.714844 63.433594 75.691406 63.636719 75.675781 63.761719 L 75.671875 63.808594 C 75.65625 63.921875 75.617188 64.023438 75.554688 64.113281 C 75.433594 64.285156 75.234375 64.394531 75.027344 64.40625 C 75.011719 64.40625 75 64.40625 74.984375 64.40625 C 74.8125 64.40625 74.644531 64.34375 74.511719 64.234375 C 74.375 64.121094 74.28125 63.949219 74.257812 63.769531 C 74.246094 63.617188 74.230469 63.476562 74.210938 63.347656 L 74.191406 63.207031 C 74.175781 63.113281 74.164062 63.019531 74.152344 62.925781 C 74.136719 62.792969 74.128906 62.65625 74.121094 62.523438 Z M 74.121094 54.757812 C 74.128906 54.894531 74.136719 55.027344 74.152344 55.160156 C 74.164062 55.253906 74.175781 55.347656 74.191406 55.441406 L 74.210938 55.585938 C 74.230469 55.714844 74.246094 55.851562 74.257812 56.007812 C 74.28125 56.1875 74.375 56.355469 74.511719 56.46875 C 74.644531 56.582031 74.8125 56.644531 74.984375 56.644531 C 75 56.644531 75.011719 56.644531 75.027344 56.644531 C 75.234375 56.632812 75.433594 56.519531 75.554688 56.351562 C 75.617188 56.261719 75.65625 56.15625 75.671875 56.046875 L 75.675781 55.996094 C 75.691406 55.875 75.71875 55.667969 75.71875 55.289062 C 75.71875 54.84375 75.695312 54.390625 75.675781 53.953125 L 75.671875 53.84375 C 75.660156 53.621094 75.652344 53.398438 75.632812 53.175781 C 75.625 53.023438 75.609375 52.871094 75.59375 52.71875 C 75.589844 52.636719 75.582031 52.554688 75.574219 52.472656 L 75.5625 52.355469 C 75.554688 52.277344 75.550781 52.199219 75.542969 52.121094 L 75.535156 52.019531 C 75.527344 51.980469 75.519531 51.945312 75.507812 51.910156 C 75.480469 51.835938 75.445312 51.765625 75.398438 51.703125 C 75.296875 51.582031 75.164062 51.496094 75.019531 51.464844 C 74.984375 51.457031 74.945312 51.453125 74.914062 51.453125 C 74.871094 51.445312 74.832031 51.449219 74.792969 51.453125 C 74.714844 51.460938 74.644531 51.484375 74.578125 51.515625 C 74.4375 51.582031 74.320312 51.695312 74.253906 51.835938 C 74.222656 51.90625 74.199219 51.984375 74.191406 52.066406 L 74.175781 52.246094 C 74.160156 52.484375 74.140625 52.71875 74.132812 52.953125 C 74.121094 53.179688 74.097656 54.445312 74.117188 54.738281 Z M 74.121094 70.289062 C 74.128906 70.421875 74.136719 70.554688 74.152344 70.691406 C 74.164062 70.78125 74.175781 70.875 74.191406 70.96875 L 74.210938 71.113281 C 74.230469 71.242188 74.246094 71.378906 74.257812 71.535156 C 74.28125 71.714844 74.375 71.882812 74.511719 71.996094 C 74.644531 72.109375 74.8125 72.171875 74.984375 72.171875 C 75 72.171875 75.011719 72.171875 75.027344 72.171875 C 75.234375 72.160156 75.433594 72.046875 75.554688 71.878906 C 75.617188 71.789062 75.65625 71.683594 75.671875 71.574219 L 75.675781 71.523438 C 75.691406 71.402344 75.714844 71.199219 75.71875 70.816406 C 75.71875 70.371094 75.695312 69.917969 75.675781 69.480469 L 75.671875 69.375 C 75.660156 69.152344 75.652344 68.925781 75.632812 68.703125 C 75.625 68.550781 75.609375 68.398438 75.59375 68.246094 C 75.585938 68.164062 75.582031 68.082031 75.574219 68 L 75.5625 67.882812 C 75.554688 67.808594 75.546875 67.730469 75.542969 67.652344 L 75.535156 67.546875 C 75.527344 67.511719 75.515625 67.472656 75.503906 67.4375 C 75.480469 67.363281 75.445312 67.292969 75.394531 67.234375 C 75.296875 67.109375 75.164062 67.023438 75.019531 66.992188 C 74.984375 66.984375 74.945312 66.980469 74.914062 66.980469 C 74.871094 66.976562 74.832031 66.976562 74.792969 66.980469 C 74.714844 66.992188 74.640625 67.011719 74.578125 67.042969 C 74.433594 67.109375 74.320312 67.222656 74.253906 67.363281 C 74.21875 67.433594 74.199219 67.511719 74.191406 67.59375 L 74.175781 67.773438 C 74.160156 68.011719 74.140625 68.246094 74.128906 68.480469 C 74.121094 68.707031 74.097656 69.972656 74.117188 70.265625 Z M 74.121094 39.230469 C 74.128906 39.363281 74.136719 39.5 74.152344 39.632812 C 74.164062 39.726562 74.175781 39.820312 74.191406 39.914062 L 74.210938 40.054688 C 74.230469 40.183594 74.246094 40.324219 74.257812 40.476562 C 74.28125 40.65625 74.375 40.828125 74.511719 40.941406 C 74.644531 41.054688 74.8125 41.117188 74.984375 41.117188 C 75 41.117188 75.011719 41.113281 75.027344 41.113281 C 75.234375 41.105469 75.433594 40.992188 75.554688 40.820312 C 75.617188 40.734375 75.65625 40.628906 75.671875 40.515625 L 75.675781 40.46875 C 75.691406 40.347656 75.714844 40.140625 75.71875 39.761719 C 75.71875 39.316406 75.695312 38.863281 75.675781 38.425781 L 75.671875 38.316406 C 75.660156 38.09375 75.652344 37.871094 75.632812 37.648438 C 75.625 37.496094 75.609375 37.34375 75.59375 37.1875 C 75.585938 37.109375 75.582031 37.027344 75.574219 36.945312 L 75.5625 36.828125 C 75.554688 36.75 75.546875 36.671875 75.542969 36.59375 L 75.535156 36.492188 C 75.527344 36.453125 75.515625 36.417969 75.503906 36.378906 C 75.480469 36.304688 75.445312 36.238281 75.394531 36.175781 C 75.296875 36.054688 75.164062 35.96875 75.019531 35.9375 C 74.984375 35.929688 74.945312 35.925781 74.914062 35.921875 C 74.871094 35.917969 74.832031 35.921875 74.792969 35.925781 C 74.714844 35.933594 74.640625 35.953125 74.578125 35.988281 C 74.433594 36.054688 74.320312 36.167969 74.253906 36.308594 C 74.21875 36.378906 74.199219 36.457031 74.191406 36.539062 L 74.175781 36.71875 C 74.160156 36.953125 74.140625 37.1875 74.128906 37.425781 C 74.121094 37.652344 74.097656 38.917969 74.117188 39.210938 Z M 74.121094 46.996094 C 74.128906 47.128906 74.136719 47.261719 74.152344 47.398438 C 74.164062 47.492188 74.175781 47.582031 74.191406 47.675781 L 74.210938 47.820312 C 74.230469 47.949219 74.246094 48.085938 74.257812 48.242188 C 74.28125 48.421875 74.375 48.589844 74.511719 48.703125 C 74.644531 48.816406 74.8125 48.878906 74.984375 48.878906 C 75 48.878906 75.011719 48.878906 75.027344 48.878906 C 75.234375 48.867188 75.433594 48.753906 75.554688 48.585938 C 75.617188 48.496094 75.65625 48.390625 75.671875 48.28125 L 75.675781 48.230469 C 75.691406 48.109375 75.714844 47.90625 75.71875 47.523438 C 75.71875 47.078125 75.695312 46.625 75.675781 46.1875 L 75.671875 46.082031 C 75.660156 45.859375 75.652344 45.636719 75.632812 45.414062 C 75.625 45.257812 75.609375 45.105469 75.59375 44.953125 C 75.585938 44.871094 75.582031 44.789062 75.574219 44.707031 L 75.5625 44.589844 C 75.554688 44.515625 75.546875 44.4375 75.542969 44.359375 L 75.535156 44.253906 C 75.527344 44.21875 75.515625 44.179688 75.503906 44.144531 C 75.480469 44.070312 75.445312 44 75.394531 43.941406 C 75.296875 43.816406 75.164062 43.730469 75.019531 43.703125 C 74.984375 43.691406 74.945312 43.691406 74.914062 43.6875 C 74.871094 43.683594 74.832031 43.683594 74.792969 43.6875 C 74.714844 43.699219 74.644531 43.71875 74.578125 43.75 C 74.433594 43.816406 74.320312 43.933594 74.253906 44.070312 C 74.21875 44.144531 74.199219 44.21875 74.191406 44.300781 L 74.175781 44.484375 C 74.160156 44.71875 74.140625 44.953125 74.128906 45.1875 C 74.121094 45.414062 74.097656 46.679688 74.117188 46.972656 Z M 113.046875 108.578125 C 113.023438 109.671875 112.730469 110.804688 112.203125 111.847656 C 111.773438 112.703125 111.175781 113.53125 110.375 114.367188 C 109.164062 115.613281 107.703125 116.679688 105.777344 117.734375 C 104.316406 118.523438 102.683594 119.234375 100.785156 119.902344 C 99.714844 120.28125 98.621094 120.570312 97.5625 120.851562 C 96.949219 121.015625 96.3125 121.1875 95.699219 121.367188 C 90.632812 122.875 83.539062 123.632812 74.574219 123.632812 C 73.027344 123.632812 71.425781 123.609375 69.765625 123.5625 L 69.53125 123.558594 C 67.671875 123.507812 65.949219 123.40625 64.265625 123.246094 C 62.347656 123.070312 60.632812 122.847656 59.015625 122.574219 C 57.132812 122.261719 55.429688 121.910156 53.816406 121.503906 C 51.976562 121.03125 50.304688 120.515625 48.699219 119.921875 C 46.816406 119.226562 45.195312 118.480469 43.738281 117.640625 C 42.847656 117.121094 42.082031 116.613281 41.398438 116.089844 C 40.558594 115.441406 39.859375 114.796875 39.261719 114.117188 C 38.554688 113.324219 37.988281 112.457031 37.582031 111.539062 C 37.121094 110.488281 36.902344 109.375 36.949219 108.316406 C 36.984375 107.285156 37.285156 106.203125 37.8125 105.199219 C 37.839844 105.144531 37.921875 104.992188 38.042969 104.765625 C 38.773438 103.394531 41 99.21875 41.597656 97.796875 C 42.382812 95.921875 43.089844 94.261719 43.765625 92.71875 C 44.371094 91.332031 45.171875 89.507812 46.015625 87.679688 C 46.867188 85.835938 47.753906 84.050781 48.433594 82.699219 L 50.9375 77.78125 C 52.523438 74.664062 54.039062 71.414062 55.5625 67.855469 C 56.570312 65.511719 57.546875 63.105469 58.492188 60.773438 C 58.910156 59.742188 59.324219 58.710938 59.746094 57.679688 C 60.839844 55.027344 62 52.359375 63.117188 49.777344 C 63.441406 49.03125 63.765625 48.289062 64.089844 47.542969 C 64.34375 46.964844 64.59375 46.390625 64.84375 45.816406 C 65.320312 44.726562 65.8125 43.597656 66.3125 42.488281 C 66.964844 41.027344 67.671875 39.480469 68.605469 37.472656 L 69.78125 34.980469 L 70.972656 32.492188 C 71.695312 30.976562 72.453125 29.445312 73.179688 27.964844 L 73.410156 27.496094 C 73.800781 26.703125 74.761719 26.375 75.554688 26.765625 C 75.902344 26.9375 76.175781 27.226562 76.324219 27.582031 C 76.578125 28.191406 76.828125 28.808594 77.066406 29.402344 C 77.199219 29.734375 77.332031 30.0625 77.46875 30.390625 C 77.9375 31.535156 82.328125 41.613281 83.035156 42.933594 C 83.75 44.277344 84.460938 45.667969 85.214844 47.191406 C 85.9375 48.652344 86.628906 50.097656 87.277344 51.492188 C 87.996094 53.023438 88.628906 54.460938 89.207031 55.878906 C 90.445312 58.914062 96.105469 71.933594 96.773438 73.222656 L 98.414062 76.390625 L 98.953125 77.457031 C 99.628906 78.800781 100.285156 80.171875 100.921875 81.5 L 101.042969 81.746094 C 101.648438 83.003906 102.300781 84.371094 103.089844 86.039062 C 103.835938 87.601562 104.542969 89.175781 105.078125 90.375 C 105.824219 92.074219 106.421875 93.457031 106.949219 94.722656 C 107.320312 95.445312 111.933594 104.355469 112.34375 105.246094 C 112.832031 106.300781 113.074219 107.453125 113.046875 108.578125 Z M 44.273438 99.488281 C 45.695312 98.734375 47.261719 98.054688 49.054688 97.410156 C 52.121094 96.304688 55.453125 95.417969 59.246094 94.699219 C 60.117188 94.535156 60.988281 94.382812 61.839844 94.25 C 62.800781 94.097656 63.652344 93.972656 64.4375 93.871094 C 66.367188 93.621094 68.078125 93.445312 69.664062 93.324219 C 71.078125 93.214844 72.574219 93.132812 74.109375 93.085938 C 74.113281 92.597656 74.125 91.933594 74.132812 91.773438 C 74.140625 91.539062 74.160156 91.304688 74.175781 91.066406 L 74.191406 90.886719 C 74.199219 90.804688 74.222656 90.726562 74.253906 90.65625 C 74.320312 90.515625 74.4375 90.402344 74.578125 90.335938 C 74.644531 90.304688 74.714844 90.28125 74.792969 90.273438 C 74.835938 90.269531 74.875 90.269531 74.914062 90.273438 C 74.945312 90.273438 74.984375 90.277344 75.019531 90.285156 C 75.164062 90.316406 75.296875 90.402344 75.398438 90.523438 C 75.445312 90.585938 75.480469 90.65625 75.507812 90.730469 C 75.519531 90.765625 75.527344 90.804688 75.535156 90.839844 L 75.542969 90.945312 C 75.550781 91.023438 75.554688 91.097656 75.5625 91.175781 L 75.574219 91.292969 C 75.582031 91.375 75.589844 91.457031 75.597656 91.539062 C 75.609375 91.691406 75.625 91.84375 75.636719 91.996094 C 75.652344 92.21875 75.660156 92.441406 75.671875 92.664062 L 75.675781 92.773438 C 75.679688 92.863281 75.683594 92.957031 75.6875 93.046875 C 76.34375 93.035156 76.957031 93.03125 77.546875 93.035156 C 78.328125 93.042969 79.246094 93.058594 80.1875 93.09375 C 83.738281 93.226562 87.277344 93.589844 90.707031 94.171875 C 94.558594 94.828125 97.941406 95.703125 101.046875 96.84375 C 102.402344 97.339844 103.632812 97.871094 104.777344 98.445312 L 104.746094 98.378906 L 103.695312 96.238281 C 103.085938 95 102.433594 93.628906 101.644531 91.933594 C 101.09375 90.738281 100.375 89.167969 99.691406 87.574219 C 98.957031 85.882812 98.359375 84.492188 97.8125 83.207031 L 97.707031 82.957031 C 97.128906 81.601562 96.53125 80.203125 95.96875 78.8125 L 95.523438 77.707031 L 95.097656 76.613281 C 94.78125 75.925781 87.539062 59.996094 86.171875 57.257812 C 85.484375 55.882812 84.820312 54.460938 84.144531 52.910156 C 83.523438 51.503906 82.890625 50.027344 82.269531 48.523438 C 81.621094 46.949219 81.042969 45.496094 80.507812 44.078125 C 79.96875 42.652344 77.976562 37.871094 77.527344 37.019531 C 77.382812 36.746094 77.242188 36.476562 77.101562 36.207031 C 76.777344 35.589844 76.445312 34.957031 76.121094 34.324219 L 75.867188 33.828125 C 75.574219 33.257812 75.277344 32.675781 74.980469 32.089844 C 74.722656 32.703125 74.457031 33.332031 74.191406 33.953125 L 73.113281 36.480469 L 72.011719 39.011719 C 71.117188 41.042969 70.417969 42.597656 69.75 44.050781 C 69.246094 45.15625 68.722656 46.269531 68.214844 47.351562 C 67.949219 47.914062 67.683594 48.480469 67.421875 49.042969 C 65.882812 52.289062 51.722656 83.101562 51.300781 84.019531 C 50.730469 85.421875 49.976562 87.261719 49.15625 89.101562 C 48.339844 90.941406 47.496094 92.75 46.851562 94.121094 C 46.140625 95.636719 45.359375 97.265625 44.464844 99.097656 C 44.402344 99.226562 44.335938 99.355469 44.273438 99.488281 Z M 109.34375 108.523438 C 109.34375 107.957031 109.210938 107.382812 108.945312 106.820312 C 108.683594 106.261719 108.296875 105.707031 107.800781 105.175781 C 106.914062 104.210938 105.71875 103.304688 104.152344 102.402344 C 102.90625 101.683594 101.457031 101.003906 99.730469 100.332031 C 98.273438 99.769531 96.675781 99.25 94.988281 98.792969 C 93.421875 98.363281 91.769531 97.980469 90.074219 97.660156 C 86.953125 97.0625 83.65625 96.640625 80.003906 96.367188 C 78.371094 96.246094 76.703125 96.164062 74.910156 96.113281 C 73.144531 96.070312 71.425781 96.074219 69.808594 96.121094 C 68.984375 96.144531 68.128906 96.183594 67.261719 96.234375 C 66.480469 96.277344 65.648438 96.339844 64.71875 96.425781 C 63.894531 96.5 63.042969 96.59375 62.183594 96.703125 C 61.363281 96.808594 60.515625 96.933594 59.667969 97.074219 C 58.035156 97.339844 46.742188 100.984375 45.386719 101.777344 C 43.789062 102.734375 42.566406 103.695312 41.664062 104.714844 C 41.632812 104.75 41.601562 104.785156 41.570312 104.824219 C 41.117188 105.691406 40.632812 106.613281 40.121094 107.550781 C 40.066406 107.824219 40.042969 108.09375 40.050781 108.355469 C 40.0625 108.980469 40.214844 109.59375 40.503906 110.175781 C 40.78125 110.734375 41.191406 111.304688 41.726562 111.871094 C 42.640625 112.832031 43.859375 113.738281 45.453125 114.644531 C 46.742188 115.371094 48.199219 116.046875 49.910156 116.710938 C 51.375 117.273438 52.976562 117.792969 54.667969 118.25 C 56.28125 118.691406 57.9375 119.078125 59.59375 119.402344 C 66.203125 120.699219 86.605469 120.378906 89.960938 119.675781 C 90.773438 119.507812 91.605469 119.320312 92.4375 119.113281 C 93.34375 118.890625 94.144531 118.679688 94.886719 118.464844 C 96.523438 117.996094 98.125 117.457031 99.652344 116.859375 C 101.320312 116.199219 102.773438 115.503906 104.085938 114.734375 C 105.648438 113.824219 106.851562 112.902344 107.757812 111.914062 C 108.265625 111.351562 108.660156 110.785156 108.925781 110.230469 C 109.203125 109.65625 109.339844 109.082031 109.34375 108.523438 Z M 75.671875 108.195312 C 75.660156 107.972656 75.652344 107.75 75.632812 107.527344 C 75.625 107.371094 75.609375 107.21875 75.59375 107.066406 C 75.585938 106.984375 75.582031 106.902344 75.574219 106.824219 L 75.5625 106.707031 C 75.554688 106.628906 75.550781 106.550781 75.542969 106.472656 L 75.535156 106.371094 C 75.527344 106.332031 75.519531 106.292969 75.507812 106.257812 C 75.480469 106.183594 75.445312 106.117188 75.398438 106.054688 C 75.296875 105.929688 75.164062 105.847656 75.019531 105.816406 C 74.984375 105.804688 74.949219 105.804688 74.914062 105.800781 C 74.875 105.796875 74.835938 105.796875 74.792969 105.800781 C 74.714844 105.8125 74.640625 105.832031 74.578125 105.863281 C 74.4375 105.933594 74.320312 106.046875 74.253906 106.183594 C 74.222656 106.257812 74.199219 106.332031 74.191406 106.417969 L 74.175781 106.597656 C 74.160156 106.832031 74.140625 107.066406 74.132812 107.304688 C 74.121094 107.53125 74.097656 108.796875 74.117188 109.085938 L 74.121094 109.109375 C 74.128906 109.242188 74.136719 109.378906 74.152344 109.511719 C 74.164062 109.605469 74.175781 109.699219 74.191406 109.792969 L 74.210938 109.933594 C 74.230469 110.0625 74.246094 110.203125 74.257812 110.355469 C 74.28125 110.535156 74.375 110.703125 74.511719 110.820312 C 74.644531 110.929688 74.8125 110.992188 74.984375 110.992188 C 75 110.992188 75.011719 110.992188 75.027344 110.992188 C 75.234375 110.980469 75.433594 110.871094 75.554688 110.699219 C 75.617188 110.609375 75.65625 110.507812 75.671875 110.394531 L 75.675781 110.347656 C 75.691406 110.222656 75.714844 110.019531 75.71875 109.640625 L 75.71875 109.636719 C 75.71875 109.191406 75.695312 108.742188 75.675781 108.304688 Z M 75.671875 100.429688 C 75.660156 100.207031 75.652344 99.984375 75.632812 99.761719 C 75.625 99.609375 75.609375 99.457031 75.59375 99.300781 C 75.585938 99.222656 75.582031 99.140625 75.574219 99.058594 L 75.5625 98.941406 C 75.554688 98.863281 75.550781 98.785156 75.542969 98.707031 L 75.535156 98.605469 C 75.527344 98.566406 75.519531 98.53125 75.507812 98.496094 C 75.480469 98.421875 75.445312 98.351562 75.398438 98.289062 C 75.296875 98.167969 75.164062 98.082031 75.019531 98.050781 C 74.984375 98.042969 74.945312 98.039062 74.914062 98.039062 C 74.871094 98.03125 74.832031 98.035156 74.792969 98.039062 C 74.714844 98.046875 74.640625 98.070312 74.578125 98.101562 C 74.4375 98.167969 74.320312 98.28125 74.253906 98.421875 C 74.222656 98.492188 74.199219 98.570312 74.191406 98.652344 L 74.175781 98.832031 C 74.160156 99.066406 74.140625 99.304688 74.132812 99.539062 C 74.121094 99.765625 74.097656 101.03125 74.117188 101.324219 L 74.121094 101.34375 C 74.128906 101.480469 74.136719 101.613281 74.152344 101.746094 C 74.164062 101.839844 74.175781 101.933594 74.191406 102.027344 L 74.210938 102.167969 C 74.230469 102.296875 74.246094 102.4375 74.257812 102.589844 C 74.28125 102.773438 74.375 102.941406 74.511719 103.054688 C 74.644531 103.167969 74.8125 103.230469 74.984375 103.230469 C 75 103.230469 75.011719 103.230469 75.027344 103.226562 C 75.234375 103.21875 75.433594 103.105469 75.554688 102.933594 C 75.617188 102.847656 75.65625 102.742188 75.671875 102.632812 L 75.675781 102.582031 C 75.691406 102.460938 75.714844 102.253906 75.71875 101.875 C 75.71875 101.429688 75.695312 100.976562 75.675781 100.539062 Z M 74.121094 85.816406 C 74.128906 85.949219 74.136719 86.085938 74.152344 86.21875 C 74.164062 86.3125 74.175781 86.40625 74.191406 86.5 L 74.210938 86.640625 C 74.230469 86.769531 74.246094 86.910156 74.257812 87.0625 C 74.28125 87.242188 74.375 87.410156 74.511719 87.527344 C 74.644531 87.636719 74.8125 87.699219 74.984375 87.699219 C 75 87.699219 75.011719 87.699219 75.027344 87.699219 C 75.234375 87.6875 75.433594 87.578125 75.554688 87.40625 C 75.617188 87.316406 75.65625 87.214844 75.671875 87.101562 L 75.675781 87.054688 C 75.691406 86.929688 75.714844 86.726562 75.71875 86.347656 C 75.71875 85.898438 75.695312 85.449219 75.675781 85.011719 L 75.671875 84.902344 C 75.660156 84.679688 75.652344 84.457031 75.632812 84.234375 C 75.625 84.082031 75.609375 83.925781 75.59375 83.773438 C 75.585938 83.691406 75.582031 83.613281 75.574219 83.53125 L 75.5625 83.414062 C 75.554688 83.335938 75.546875 83.257812 75.542969 83.179688 L 75.535156 83.078125 C 75.527344 83.039062 75.515625 83 75.503906 82.964844 C 75.480469 82.890625 75.445312 82.824219 75.394531 82.761719 C 75.296875 82.636719 75.164062 82.554688 75.019531 82.523438 C 74.984375 82.511719 74.945312 82.511719 74.914062 82.507812 C 74.875 82.503906 74.835938 82.507812 74.792969 82.511719 C 74.714844 82.519531 74.640625 82.539062 74.578125 82.574219 C 74.433594 82.640625 74.320312 82.753906 74.253906 82.894531 C 74.21875 82.964844 74.199219 83.039062 74.191406 83.125 L 74.175781 83.304688 C 74.160156 83.539062 74.140625 83.773438 74.128906 84.011719 C 74.121094 84.238281 74.097656 85.503906 74.117188 85.796875 Z M 74.121094 78.050781 C 74.128906 78.1875 74.136719 78.320312 74.152344 78.453125 C 74.164062 78.546875 74.175781 78.640625 74.191406 78.734375 L 74.210938 78.875 C 74.230469 79.003906 74.246094 79.144531 74.257812 79.296875 C 74.28125 79.480469 74.375 79.648438 74.511719 79.761719 C 74.644531 79.875 74.8125 79.9375 74.984375 79.9375 C 75 79.9375 75.011719 79.9375 75.027344 79.933594 C 75.234375 79.925781 75.433594 79.8125 75.554688 79.640625 C 75.617188 79.554688 75.65625 79.449219 75.671875 79.339844 L 75.675781 79.289062 C 75.691406 79.167969 75.714844 78.960938 75.71875 78.582031 C 75.71875 78.136719 75.695312 77.683594 75.675781 77.246094 L 75.671875 77.136719 C 75.660156 76.914062 75.652344 76.691406 75.632812 76.46875 C 75.625 76.316406 75.609375 76.164062 75.59375 76.011719 C 75.585938 75.929688 75.582031 75.847656 75.574219 75.765625 L 75.5625 75.648438 C 75.554688 75.570312 75.546875 75.492188 75.542969 75.414062 L 75.535156 75.3125 C 75.527344 75.273438 75.515625 75.238281 75.503906 75.203125 C 75.480469 75.128906 75.445312 75.058594 75.394531 74.996094 C 75.296875 74.875 75.164062 74.789062 75.019531 74.757812 C 74.984375 74.75 74.945312 74.746094 74.914062 74.746094 C 74.875 74.738281 74.835938 74.742188 74.792969 74.746094 C 74.714844 74.753906 74.644531 74.777344 74.578125 74.808594 C 74.433594 74.875 74.320312 74.988281 74.253906 75.128906 C 74.21875 75.199219 74.199219 75.277344 74.191406 75.359375 L 74.175781 75.539062 C 74.160156 75.773438 74.140625 76.011719 74.128906 76.246094 C 74.121094 76.472656 74.097656 77.738281 74.117188 78.03125 Z M 75.671875 115.960938 C 75.660156 115.734375 75.652344 115.511719 75.632812 115.289062 C 75.625 115.136719 75.609375 114.984375 75.59375 114.832031 C 75.589844 114.75 75.582031 114.667969 75.574219 114.585938 L 75.5625 114.46875 C 75.554688 114.390625 75.550781 114.316406 75.542969 114.238281 L 75.535156 114.132812 C 75.527344 114.097656 75.519531 114.058594 75.507812 114.023438 C 75.480469 113.949219 75.445312 113.878906 75.398438 113.820312 C 75.296875 113.695312 75.164062 113.609375 75.019531 113.578125 C 74.984375 113.570312 74.945312 113.566406 74.914062 113.566406 C 74.871094 113.5625 74.832031 113.5625 74.792969 113.566406 C 74.714844 113.574219 74.644531 113.597656 74.578125 113.628906 C 74.4375 113.695312 74.320312 113.808594 74.253906 113.949219 C 74.222656 114.019531 74.199219 114.097656 74.191406 114.179688 L 74.175781 114.359375 C 74.160156 114.597656 74.140625 114.832031 74.132812 115.066406 C 74.121094 115.292969 74.097656 116.558594 74.117188 116.851562 L 74.121094 116.871094 C 74.128906 117.007812 74.136719 117.140625 74.152344 117.273438 C 74.164062 117.367188 74.175781 117.460938 74.191406 117.554688 L 74.210938 117.699219 C 74.230469 117.828125 74.246094 117.964844 74.257812 118.121094 C 74.28125 118.300781 74.375 118.46875 74.511719 118.582031 C 74.644531 118.695312 74.8125 118.757812 74.984375 118.757812 C 75 118.757812 75.011719 118.757812 75.027344 118.757812 C 75.234375 118.746094 75.433594 118.632812 75.554688 118.464844 C 75.617188 118.375 75.65625 118.269531 75.671875 118.160156 L 75.675781 118.109375 C 75.691406 117.988281 75.714844 117.785156 75.71875 117.402344 C 75.71875 116.957031 75.695312 116.503906 75.675781 116.066406 Z M 75.671875 115.960938 "/></g></g></svg>