<svg xmlns="http://www.w3.org/2000/svg" xmlns:xlink="http://www.w3.org/1999/xlink" width="200" zoomAndPan="magnify" viewBox="0 0 150 149.999998" height="200" preserveAspectRatio="xMidYMid meet" version="1.2"><defs><clipPath id="648ede01e0"><path d="M 20.128906 51.652344 L 129 51.652344 L 129 98.152344 L 20.128906 98.152344 Z M 20.128906 51.652344 "/></clipPath></defs><g id="7319409bee"><g clip-rule="nonzero" clip-path="url(#648ede01e0)"><path style=" stroke:none;fill-rule:nonzero;fill:#5ce1e6;fill-opacity:1;" d="M 118.839844 52.082031 C 116.742188 52.707031 115.449219 54.457031 115.910156 56.074219 C 116.371094 57.734375 118.171875 58.355469 119.761719 57.386719 C 121.121094 56.554688 122.320312 56.972656 122.019531 58.195312 C 121.675781 59.53125 119.300781 61.144531 116.097656 62.207031 C 113.421875 63.082031 112.523438 64.855469 113.742188 66.769531 C 114.367188 67.714844 115.425781 67.992188 120.085938 68.339844 C 127.253906 68.890625 127.023438 68.890625 128.015625 67.898438 C 129.859375 66.054688 128.246094 63.613281 125.15625 63.613281 L 124.371094 63.613281 L 125.203125 62.644531 C 126.910156 60.660156 127.625 57.894531 126.957031 55.863281 C 126.5625 54.664062 124.996094 53.050781 123.613281 52.40625 C 122.414062 51.832031 120.152344 51.691406 118.839844 52.082031 Z M 35.167969 58.460938 C 32.511719 58.601562 28.796875 59.035156 27.332031 59.355469 C 24.328125 60.042969 23.871094 61.234375 22.5625 71.710938 C 20.453125 88.789062 20.132812 93.347656 20.933594 95.089844 C 21.484375 96.304688 22.699219 97.359375 24.214844 97.863281 C 25.246094 98.230469 26.160156 98.300781 30.402344 98.300781 L 35.375 98.300781 L 36.0625 97.636719 C 36.933594 96.808594 37.117188 95.9375 36.683594 94.882812 C 36.132812 93.578125 35.375 93.371094 31.113281 93.347656 C 29.117188 93.347656 27.078125 93.28125 26.574219 93.1875 L 25.65625 93.003906 L 25.703125 90.621094 C 25.726562 88.328125 26.828125 77.898438 27.054688 77.511719 C 27.125 77.417969 28.222656 77.328125 29.507812 77.328125 C 33.839844 77.328125 36.039062 76.707031 36.867188 75.285156 C 37.277344 74.574219 37.277344 74.4375 36.980469 73.566406 C 36.75 72.878906 36.429688 72.511719 35.8125 72.167969 C 35.03125 71.757812 34.824219 71.757812 33.0625 72.007812 C 32.007812 72.167969 30.332031 72.285156 29.347656 72.285156 L 27.558594 72.285156 L 27.675781 71.527344 C 27.742188 71.136719 27.996094 69.441406 28.203125 67.769531 C 28.40625 66.117188 28.660156 64.628906 28.75 64.492188 C 29.003906 64.078125 30.492188 63.847656 35.167969 63.574219 C 40.625 63.253906 40.855469 63.207031 41.632812 62.425781 C 42.78125 61.28125 42.414062 59.425781 40.898438 58.644531 C 40.257812 58.300781 38.722656 58.253906 35.167969 58.460938 Z M 105.003906 65.652344 C 102.46875 66.597656 100.601562 68.371094 99.101562 71.300781 C 96.84375 75.613281 95.898438 80.476562 96.589844 83.914062 C 97.304688 87.324219 99.125 90.023438 101.546875 91.222656 C 103.113281 91.980469 105.421875 91.960938 107.011719 91.128906 C 108.902344 90.136719 110.953125 87.761719 111.371094 86.035156 C 111.667969 84.742188 110.355469 83.105469 108.972656 83.105469 C 108.117188 83.105469 107.195312 83.75 106.367188 84.925781 C 105.257812 86.449219 104.523438 86.933594 103.808594 86.609375 C 102.332031 85.941406 101.203125 82.992188 101.476562 80.59375 C 101.871094 77.203125 103.484375 73.144531 105.074219 71.554688 C 105.929688 70.703125 106.664062 70.378906 106.664062 70.886719 C 106.664062 71.1875 107.910156 71.808594 108.511719 71.808594 C 109.316406 71.808594 110.332031 71.164062 110.722656 70.378906 C 111.460938 68.949219 110.585938 66.757812 108.925781 65.90625 C 107.957031 65.398438 106.042969 65.28125 105.003906 65.652344 Z M 77.453125 66.390625 C 76.324219 66.964844 75.078125 68.117188 74.019531 69.59375 L 73.558594 70.242188 L 72.867188 68.902344 C 71.320312 65.765625 68.644531 65.675781 65.601562 68.671875 L 64.335938 69.894531 L 63.6875 69.363281 C 62.535156 68.351562 60.597656 68.8125 59.839844 70.242188 C 59.492188 70.886719 59.214844 75.382812 59.148438 81.285156 C 59.078125 85.664062 59.125 86.332031 59.46875 86.863281 C 60.414062 88.292969 62.238281 88.5 63.390625 87.300781 C 63.917969 86.75 64.035156 86.265625 64.472656 83.40625 C 64.980469 79.925781 65.578125 77.640625 66.433594 75.957031 C 67.078125 74.714844 68.324219 72.960938 68.578125 72.960938 C 68.667969 72.960938 68.96875 74.320312 69.246094 75.980469 C 69.683594 78.703125 69.800781 79.070312 70.398438 79.691406 C 71.296875 80.59375 72.613281 80.777344 73.625 80.132812 C 74.203125 79.761719 74.734375 78.957031 75.886719 76.605469 C 77.363281 73.605469 78.167969 72.269531 78.375 72.5 C 78.421875 72.570312 78.328125 75.40625 78.144531 78.839844 C 77.753906 86.355469 77.824219 89.191406 78.375 90.046875 C 79.230469 91.335938 81.1875 91.476562 82.25 90.34375 C 82.734375 89.816406 82.800781 89.515625 82.871094 87.53125 C 82.917969 86.308594 83.078125 82.390625 83.242188 78.839844 C 83.679688 69.339844 83.355469 67.472656 81.074219 66.320312 C 79.757812 65.652344 78.90625 65.675781 77.453125 66.390625 Z M 46.765625 74.113281 C 45.890625 74.207031 45.058594 74.460938 44.691406 74.734375 C 43.285156 75.773438 43.167969 77.527344 44.4375 78.585938 C 45.222656 79.253906 45.660156 79.277344 50.039062 78.980469 C 52.484375 78.816406 52.574219 78.792969 53.199219 78.078125 C 54.445312 76.695312 53.84375 74.621094 52.070312 74.113281 C 51.125 73.859375 49.003906 73.859375 46.765625 74.113281 Z M 47.296875 81.007812 C 45.335938 81.191406 44.507812 81.699219 44.160156 82.875 C 43.953125 83.589844 43.976562 83.867188 44.296875 84.558594 C 44.992188 86.035156 46.417969 86.355469 50.109375 85.871094 C 52.230469 85.597656 53.128906 85.132812 53.542969 84.097656 C 53.980469 83.105469 53.660156 81.953125 52.785156 81.261719 C 52.136719 80.753906 50.707031 80.707031 47.296875 81.007812 Z M 89.003906 84.695312 C 86.953125 85.988281 87.921875 89.101562 90.363281 89.101562 C 91.957031 89.101562 93.199219 87.324219 92.601562 85.894531 C 92.003906 84.398438 90.34375 83.84375 89.003906 84.695312 Z M 89.003906 84.695312 "/></g></g></svg>