<svg xmlns="http://www.w3.org/2000/svg" xmlns:xlink="http://www.w3.org/1999/xlink" width="500" zoomAndPan="magnify" viewBox="0 0 375 225" height="300" preserveAspectRatio="xMidYMid meet" version="1.2"><defs><clipPath id="f65722ddbd"><path d="M 149.25 55 L 172 55 L 172 88 L 149.25 88 Z M 149.25 55 "/></clipPath><clipPath id="20f9ff711d"><path d="M 149.25 55 L 172 55 L 172 89 L 149.25 89 Z M 149.25 55 "/></clipPath><clipPath id="a17d7c30a0"><path d="M 171 47 L 192 47 L 192 96.960938 L 171 96.960938 Z M 171 47 "/></clipPath><clipPath id="4b56ea4388"><path d="M 170 46.710938 L 193 46.710938 L 193 96.960938 L 170 96.960938 Z M 170 46.710938 "/></clipPath></defs><g id="345a534974"><g clip-rule="nonzero" clip-path="url(#f65722ddbd)"><path style=" stroke:none;fill-rule:nonzero;fill:#03fa6e;fill-opacity:1;" d="M 169.667969 87.679688 C 169.3125 87.679688 168.957031 87.558594 168.675781 87.335938 L 150.574219 73.09375 C 150.1875 72.789062 149.964844 72.328125 149.964844 71.835938 C 149.964844 71.339844 150.1875 70.882812 150.574219 70.574219 L 168.675781 56.332031 C 168.957031 56.109375 169.3125 55.988281 169.667969 55.988281 C 170.164062 55.988281 170.625 56.210938 170.925781 56.601562 C 171.191406 56.9375 171.3125 57.355469 171.261719 57.78125 C 171.210938 58.207031 170.996094 58.585938 170.660156 58.851562 L 154.160156 71.835938 L 170.660156 84.816406 C 170.996094 85.082031 171.210938 85.460938 171.261719 85.886719 C 171.3125 86.3125 171.191406 86.730469 170.925781 87.066406 C 170.625 87.457031 170.164062 87.679688 169.667969 87.679688 "/></g><g clip-rule="nonzero" clip-path="url(#20f9ff711d)"><path style=" stroke:none;fill-rule:nonzero;fill:#2a446b;fill-opacity:1;" d="M 169.667969 55.304688 C 169.15625 55.304688 168.65625 55.476562 168.257812 55.796875 L 150.152344 70.039062 C 149.597656 70.476562 149.28125 71.128906 149.28125 71.835938 C 149.28125 72.539062 149.597656 73.195312 150.152344 73.632812 L 168.257812 87.875 C 168.65625 88.1875 169.15625 88.363281 169.667969 88.363281 C 170.375 88.363281 171.03125 88.042969 171.464844 87.488281 C 171.84375 87.011719 172.011719 86.414062 171.941406 85.804688 C 171.867188 85.199219 171.5625 84.65625 171.082031 84.277344 L 155.265625 71.835938 L 171.082031 59.390625 C 171.5625 59.007812 171.867188 58.46875 171.941406 57.863281 C 172.011719 57.257812 171.84375 56.65625 171.464844 56.175781 C 171.03125 55.625 170.375 55.304688 169.667969 55.304688 Z M 169.667969 56.671875 C 169.941406 56.671875 170.210938 56.792969 170.390625 57.019531 C 170.710938 57.421875 170.636719 58 170.238281 58.316406 L 153.054688 71.835938 L 170.238281 85.351562 C 170.636719 85.667969 170.710938 86.246094 170.390625 86.644531 C 170.210938 86.875 169.941406 86.996094 169.667969 86.996094 C 169.46875 86.996094 169.269531 86.933594 169.101562 86.800781 L 150.996094 72.558594 C 150.777344 72.382812 150.644531 72.117188 150.644531 71.835938 C 150.644531 71.550781 150.777344 71.285156 150.996094 71.109375 L 169.101562 56.867188 C 169.265625 56.734375 169.46875 56.671875 169.667969 56.671875 "/></g><path style=" stroke:none;fill-rule:nonzero;fill:#03fa6e;fill-opacity:1;" d="M 193.554688 87.679688 C 193.058594 87.679688 192.601562 87.457031 192.292969 87.066406 C 191.746094 86.375 191.867188 85.363281 192.5625 84.816406 L 209.0625 71.835938 L 192.5625 58.851562 C 191.867188 58.304688 191.746094 57.292969 192.292969 56.601562 C 192.601562 56.210938 193.058594 55.988281 193.554688 55.988281 C 193.910156 55.988281 194.265625 56.109375 194.546875 56.332031 L 212.648438 70.574219 C 213.035156 70.882812 213.257812 71.339844 213.257812 71.835938 C 213.257812 72.328125 213.035156 72.789062 212.644531 73.09375 L 194.546875 87.335938 C 194.265625 87.558594 193.910156 87.679688 193.554688 87.679688 "/><path style=" stroke:none;fill-rule:nonzero;fill:#2a446b;fill-opacity:1;" d="M 193.554688 55.304688 C 192.847656 55.304688 192.195312 55.625 191.757812 56.175781 C 190.976562 57.167969 191.148438 58.609375 192.140625 59.390625 L 207.957031 71.835938 L 192.140625 84.277344 C 191.148438 85.058594 190.976562 86.5 191.757812 87.488281 C 192.195312 88.042969 192.847656 88.363281 193.554688 88.363281 C 194.0625 88.363281 194.5625 88.1875 194.964844 87.875 L 213.070312 73.632812 C 213.625 73.195312 213.941406 72.539062 213.941406 71.835938 C 213.941406 71.128906 213.625 70.476562 213.070312 70.039062 L 194.96875 55.796875 C 194.566406 55.476562 194.0625 55.304688 193.554688 55.304688 Z M 193.554688 56.671875 C 193.753906 56.671875 193.957031 56.734375 194.121094 56.867188 L 212.226562 71.109375 C 212.445312 71.285156 212.574219 71.550781 212.574219 71.835938 C 212.574219 72.117188 212.445312 72.382812 212.226562 72.558594 L 194.121094 86.800781 C 193.957031 86.933594 193.753906 86.996094 193.554688 86.996094 C 193.28125 86.996094 193.011719 86.875 192.828125 86.644531 C 192.515625 86.246094 192.585938 85.667969 192.984375 85.351562 L 210.167969 71.835938 L 192.984375 58.316406 C 192.585938 58 192.515625 57.421875 192.828125 57.019531 C 193.011719 56.792969 193.285156 56.671875 193.554688 56.671875 "/><g clip-rule="nonzero" clip-path="url(#a17d7c30a0)"><path style=" stroke:none;fill-rule:nonzero;fill:#03fa6e;fill-opacity:1;" d="M 172.613281 96.273438 C 172.414062 96.273438 172.222656 96.234375 172.035156 96.164062 C 171.636719 96.007812 171.320312 95.707031 171.148438 95.316406 C 170.972656 94.925781 170.964844 94.492188 171.117188 94.089844 L 188.800781 48.417969 C 189.035156 47.808594 189.636719 47.394531 190.292969 47.394531 C 190.492188 47.394531 190.6875 47.433594 190.875 47.503906 C 191.695312 47.824219 192.109375 48.753906 191.789062 49.578125 L 174.113281 95.25 C 173.875 95.859375 173.269531 96.273438 172.613281 96.273438 "/></g><g clip-rule="nonzero" clip-path="url(#4b56ea4388)"><path style=" stroke:none;fill-rule:nonzero;fill:#2a446b;fill-opacity:1;" d="M 190.292969 46.710938 C 189.355469 46.710938 188.5 47.300781 188.164062 48.171875 L 170.480469 93.84375 C 170.265625 94.414062 170.277344 95.035156 170.523438 95.59375 C 170.773438 96.152344 171.21875 96.582031 171.789062 96.800781 C 172.054688 96.90625 172.332031 96.957031 172.613281 96.957031 C 173.550781 96.957031 174.410156 96.371094 174.75 95.496094 L 192.425781 49.824219 C 192.882812 48.648438 192.292969 47.320312 191.117188 46.867188 C 190.855469 46.765625 190.578125 46.710938 190.292969 46.710938 Z M 190.292969 48.078125 C 190.40625 48.078125 190.515625 48.097656 190.625 48.140625 C 191.101562 48.324219 191.335938 48.855469 191.152344 49.332031 L 173.472656 95 C 173.332031 95.367188 172.984375 95.589844 172.613281 95.589844 C 172.503906 95.589844 172.390625 95.570312 172.28125 95.527344 C 171.808594 95.34375 171.570312 94.808594 171.757812 94.335938 L 189.433594 48.667969 C 189.578125 48.300781 189.925781 48.078125 190.292969 48.078125 "/></g><g style="fill:#ffffff;fill-opacity:1;"><g transform="translate(87.038309, 141.76159)"><path style="stroke:none" d="M 22.078125 -7.03125 L 22.078125 -32.015625 L 28.234375 -32.015625 L 28.234375 0 L 19.828125 0 L 8.328125 -25.078125 L 8.328125 0 L 2.171875 0 L 2.171875 -32.015625 L 10.578125 -32.015625 Z M 22.078125 -7.03125 "/></g></g><g style="fill:#ffffff;fill-opacity:1;"><g transform="translate(115.932884, 141.76159)"><path style="stroke:none" d="M 5.25 -25.625 C 4.40625 -25.625 3.671875 -25.847656 3.046875 -26.296875 C 2.429688 -26.742188 2.125 -27.441406 2.125 -28.390625 C 2.125 -29.234375 2.421875 -29.894531 3.015625 -30.375 C 3.609375 -30.863281 4.351562 -31.109375 5.25 -31.109375 C 6.175781 -31.109375 6.925781 -30.863281 7.5 -30.375 C 8.082031 -29.894531 8.375 -29.234375 8.375 -28.390625 C 8.375 -27.441406 8.066406 -26.742188 7.453125 -26.296875 C 6.847656 -25.847656 6.113281 -25.625 5.25 -25.625 Z M 8.40625 0 L 2.125 0 L 2.125 -22.65625 L 8.40625 -22.65625 Z M 8.40625 0 "/></g></g><g style="fill:#ffffff;fill-opacity:1;"><g transform="translate(124.972065, 141.76159)"><path style="stroke:none" d="M 19.46875 0 L 12.28125 0 C 9.570312 0 7.660156 -0.609375 6.546875 -1.828125 C 5.441406 -3.054688 4.890625 -4.910156 4.890625 -7.390625 L 4.890625 -16.90625 L 0.90625 -16.90625 L 0.90625 -22.65625 L 4.890625 -22.65625 L 4.890625 -29.609375 L 11.171875 -29.609375 L 11.171875 -22.65625 L 19.421875 -22.65625 L 19.421875 -16.90625 L 11.171875 -16.90625 L 11.171875 -9.359375 C 11.171875 -8.097656 11.484375 -7.1875 12.109375 -6.625 C 12.742188 -6.070312 13.734375 -5.796875 15.078125 -5.796875 L 19.46875 -5.796875 Z M 19.46875 0 "/></g></g><g style="fill:#ffffff;fill-opacity:1;"><g transform="translate(144.590265, 141.76159)"><path style="stroke:none" d="M 8.40625 0 L 2.125 0 L 2.125 -21.796875 C 3.238281 -22.035156 4.378906 -22.21875 5.546875 -22.34375 C 6.710938 -22.476562 7.8125 -22.5625 8.84375 -22.59375 C 9.875 -22.632812 10.726562 -22.65625 11.40625 -22.65625 L 15.828125 -22.65625 L 15.828125 -16.90625 L 12.4375 -16.90625 C 12.125 -16.90625 11.675781 -16.882812 11.09375 -16.84375 C 10.507812 -16.800781 9.960938 -16.757812 9.453125 -16.71875 C 8.941406 -16.675781 8.59375 -16.628906 8.40625 -16.578125 Z M 8.40625 0 "/></g></g><g style="fill:#ffffff;fill-opacity:1;"><g transform="translate(160.418966, 141.76159)"><path style="stroke:none" d="M 14.171875 0.625 C 11.722656 0.625 9.550781 0.0976562 7.65625 -0.953125 C 5.757812 -2.003906 4.28125 -3.441406 3.21875 -5.265625 C 2.15625 -7.097656 1.625 -9.171875 1.625 -11.484375 L 1.625 -11.53125 C 1.625 -13.84375 2.15625 -15.90625 3.21875 -17.71875 C 4.28125 -19.539062 5.753906 -20.972656 7.640625 -22.015625 C 9.523438 -23.054688 11.703125 -23.578125 14.171875 -23.578125 C 16.648438 -23.578125 18.835938 -23.054688 20.734375 -22.015625 C 22.628906 -20.972656 24.109375 -19.539062 25.171875 -17.71875 C 26.234375 -15.90625 26.765625 -13.84375 26.765625 -11.53125 L 26.765625 -11.484375 C 26.765625 -9.171875 26.234375 -7.097656 25.171875 -5.265625 C 24.109375 -3.441406 22.628906 -2.003906 20.734375 -0.953125 C 18.835938 0.0976562 16.648438 0.625 14.171875 0.625 Z M 14.171875 -4.96875 C 15.429688 -4.96875 16.53125 -5.257812 17.46875 -5.84375 C 18.40625 -6.425781 19.132812 -7.207031 19.65625 -8.1875 C 20.1875 -9.175781 20.453125 -10.273438 20.453125 -11.484375 L 20.453125 -11.5625 C 20.453125 -12.78125 20.191406 -13.867188 19.671875 -14.828125 C 19.160156 -15.785156 18.4375 -16.546875 17.5 -17.109375 C 16.570312 -17.679688 15.460938 -17.96875 14.171875 -17.96875 C 12.910156 -17.96875 11.8125 -17.679688 10.875 -17.109375 C 9.9375 -16.546875 9.203125 -15.785156 8.671875 -14.828125 C 8.148438 -13.867188 7.890625 -12.78125 7.890625 -11.5625 L 7.890625 -11.484375 C 7.890625 -10.273438 8.148438 -9.175781 8.671875 -8.1875 C 9.203125 -7.207031 9.941406 -6.425781 10.890625 -5.84375 C 11.835938 -5.257812 12.929688 -4.96875 14.171875 -4.96875 Z M 14.171875 -4.96875 "/></g></g><g style="fill:#ffffff;fill-opacity:1;"><g transform="translate(187.260888, 141.76159)"><path style="stroke:none" d="M 11.5625 0.515625 C 8.113281 0.515625 4.800781 -0.140625 1.625 -1.453125 L 3.3125 -6 C 4.632812 -5.425781 5.960938 -5.003906 7.296875 -4.734375 C 8.640625 -4.472656 9.878906 -4.34375 11.015625 -4.34375 C 12.359375 -4.34375 13.441406 -4.472656 14.265625 -4.734375 C 15.097656 -5.003906 15.515625 -5.546875 15.515625 -6.359375 C 15.515625 -6.960938 15.25 -7.441406 14.71875 -7.796875 C 14.195312 -8.148438 13.109375 -8.550781 11.453125 -9 L 9.3125 -9.5625 C 6.945312 -10.1875 5.210938 -11.078125 4.109375 -12.234375 C 3.003906 -13.398438 2.453125 -14.914062 2.453125 -16.78125 C 2.453125 -18.882812 3.242188 -20.535156 4.828125 -21.734375 C 6.421875 -22.929688 8.691406 -23.53125 11.640625 -23.53125 C 13.359375 -23.53125 15.039062 -23.351562 16.6875 -23 C 18.332031 -22.644531 19.734375 -22.164062 20.890625 -21.5625 L 19.078125 -17.171875 C 18.078125 -17.703125 16.957031 -18.082031 15.71875 -18.3125 C 14.476562 -18.550781 13.367188 -18.671875 12.390625 -18.671875 C 11.265625 -18.671875 10.378906 -18.546875 9.734375 -18.296875 C 9.085938 -18.046875 8.765625 -17.609375 8.765625 -16.984375 C 8.765625 -16.398438 9.0625 -15.9375 9.65625 -15.59375 C 10.25 -15.25 11.226562 -14.878906 12.59375 -14.484375 L 14.21875 -14.0625 C 16.769531 -13.34375 18.648438 -12.40625 19.859375 -11.25 C 21.066406 -10.09375 21.671875 -8.617188 21.671875 -6.828125 C 21.671875 -1.929688 18.300781 0.515625 11.5625 0.515625 Z M 11.5625 0.515625 "/></g></g><g style="fill:#ffffff;fill-opacity:1;"><g transform="translate(209.010681, 141.76159)"><path style="stroke:none" d="M 14.171875 0.625 C 11.722656 0.625 9.550781 0.0976562 7.65625 -0.953125 C 5.757812 -2.003906 4.28125 -3.441406 3.21875 -5.265625 C 2.15625 -7.097656 1.625 -9.171875 1.625 -11.484375 L 1.625 -11.53125 C 1.625 -13.84375 2.15625 -15.90625 3.21875 -17.71875 C 4.28125 -19.539062 5.753906 -20.972656 7.640625 -22.015625 C 9.523438 -23.054688 11.703125 -23.578125 14.171875 -23.578125 C 16.648438 -23.578125 18.835938 -23.054688 20.734375 -22.015625 C 22.628906 -20.972656 24.109375 -19.539062 25.171875 -17.71875 C 26.234375 -15.90625 26.765625 -13.84375 26.765625 -11.53125 L 26.765625 -11.484375 C 26.765625 -9.171875 26.234375 -7.097656 25.171875 -5.265625 C 24.109375 -3.441406 22.628906 -2.003906 20.734375 -0.953125 C 18.835938 0.0976562 16.648438 0.625 14.171875 0.625 Z M 14.171875 -4.96875 C 15.429688 -4.96875 16.53125 -5.257812 17.46875 -5.84375 C 18.40625 -6.425781 19.132812 -7.207031 19.65625 -8.1875 C 20.1875 -9.175781 20.453125 -10.273438 20.453125 -11.484375 L 20.453125 -11.5625 C 20.453125 -12.78125 20.191406 -13.867188 19.671875 -14.828125 C 19.160156 -15.785156 18.4375 -16.546875 17.5 -17.109375 C 16.570312 -17.679688 15.460938 -17.96875 14.171875 -17.96875 C 12.910156 -17.96875 11.8125 -17.679688 10.875 -17.109375 C 9.9375 -16.546875 9.203125 -15.785156 8.671875 -14.828125 C 8.148438 -13.867188 7.890625 -12.78125 7.890625 -11.5625 L 7.890625 -11.484375 C 7.890625 -10.273438 8.148438 -9.175781 8.671875 -8.1875 C 9.203125 -7.207031 9.941406 -6.425781 10.890625 -5.84375 C 11.835938 -5.257812 12.929688 -4.96875 14.171875 -4.96875 Z M 14.171875 -4.96875 "/></g></g><g style="fill:#ffffff;fill-opacity:1;"><g transform="translate(235.852604, 141.76159)"><path style="stroke:none" d="M 11.140625 0 L 4.859375 0 L 4.859375 -16.984375 L 0.90625 -16.984375 L 0.90625 -22.65625 L 4.859375 -22.65625 L 4.859375 -24.796875 C 4.859375 -27.210938 5.660156 -29.019531 7.265625 -30.21875 C 8.867188 -31.414062 11.210938 -32.015625 14.296875 -32.015625 L 19.46875 -32.015625 L 19.46875 -27.4375 L 14.921875 -27.4375 C 13.554688 -27.4375 12.582031 -27.171875 12 -26.640625 C 11.425781 -26.117188 11.140625 -25.410156 11.140625 -24.515625 L 11.140625 -22.65625 L 19.421875 -22.65625 L 19.421875 -16.984375 L 11.140625 -16.984375 Z M 11.140625 0 "/></g></g><g style="fill:#ffffff;fill-opacity:1;"><g transform="translate(255.312899, 141.76159)"><path style="stroke:none" d="M 19.46875 0 L 12.28125 0 C 9.570312 0 7.660156 -0.609375 6.546875 -1.828125 C 5.441406 -3.054688 4.890625 -4.910156 4.890625 -7.390625 L 4.890625 -16.90625 L 0.90625 -16.90625 L 0.90625 -22.65625 L 4.890625 -22.65625 L 4.890625 -29.609375 L 11.171875 -29.609375 L 11.171875 -22.65625 L 19.421875 -22.65625 L 19.421875 -16.90625 L 11.171875 -16.90625 L 11.171875 -9.359375 C 11.171875 -8.097656 11.484375 -7.1875 12.109375 -6.625 C 12.742188 -6.070312 13.734375 -5.796875 15.078125 -5.796875 L 19.46875 -5.796875 Z M 19.46875 0 "/></g></g><g style="fill:#03fa6e;fill-opacity:1;"><g transform="translate(136.802045, 171.503518)"><path style="stroke:none" d="M 6.046875 0.265625 C 4.242188 0.265625 2.507812 -0.078125 0.84375 -0.765625 L 1.734375 -3.140625 C 2.421875 -2.835938 3.113281 -2.613281 3.8125 -2.46875 C 4.519531 -2.332031 5.171875 -2.265625 5.765625 -2.265625 C 6.460938 -2.265625 7.023438 -2.332031 7.453125 -2.46875 C 7.890625 -2.613281 8.109375 -2.898438 8.109375 -3.328125 C 8.109375 -3.640625 7.96875 -3.890625 7.6875 -4.078125 C 7.414062 -4.265625 6.847656 -4.472656 5.984375 -4.703125 L 4.875 -5 C 3.632812 -5.320312 2.722656 -5.785156 2.140625 -6.390625 C 1.566406 -7.003906 1.28125 -7.796875 1.28125 -8.765625 C 1.28125 -9.867188 1.695312 -10.734375 2.53125 -11.359375 C 3.363281 -11.984375 4.550781 -12.296875 6.09375 -12.296875 C 6.988281 -12.296875 7.863281 -12.203125 8.71875 -12.015625 C 9.582031 -11.835938 10.316406 -11.585938 10.921875 -11.265625 L 9.96875 -8.984375 C 9.445312 -9.253906 8.863281 -9.453125 8.21875 -9.578125 C 7.570312 -9.703125 6.992188 -9.765625 6.484375 -9.765625 C 5.890625 -9.765625 5.421875 -9.695312 5.078125 -9.5625 C 4.742188 -9.4375 4.578125 -9.207031 4.578125 -8.875 C 4.578125 -8.570312 4.734375 -8.332031 5.046875 -8.15625 C 5.359375 -7.976562 5.867188 -7.785156 6.578125 -7.578125 L 7.4375 -7.34375 C 8.769531 -6.976562 9.75 -6.488281 10.375 -5.875 C 11.007812 -5.269531 11.328125 -4.503906 11.328125 -3.578125 C 11.328125 -1.015625 9.566406 0.265625 6.046875 0.265625 Z M 6.046875 0.265625 "/></g></g><g style="fill:#03fa6e;fill-opacity:1;"><g transform="translate(148.170433, 171.503518)"><path style="stroke:none" d="M 8.828125 -3.21875 L 8.828125 -11.71875 L 12.09375 -11.71875 L 12.09375 0.078125 C 12.09375 1.265625 11.84375 2.195312 11.34375 2.875 C 10.851562 3.5625 10.195312 4.046875 9.375 4.328125 C 8.5625 4.617188 7.664062 4.765625 6.6875 4.765625 C 6.207031 4.765625 5.710938 4.734375 5.203125 4.671875 C 4.703125 4.609375 4.242188 4.53125 3.828125 4.4375 C 3.410156 4.34375 3.078125 4.238281 2.828125 4.125 L 2.109375 1.015625 C 2.492188 1.191406 2.9375 1.34375 3.4375 1.46875 C 3.9375 1.601562 4.4375 1.703125 4.9375 1.765625 C 5.445312 1.835938 5.878906 1.875 6.234375 1.875 C 7.210938 1.875 7.890625 1.703125 8.265625 1.359375 C 8.640625 1.023438 8.828125 0.492188 8.828125 -0.234375 L 8.828125 -0.65625 C 8.441406 -0.613281 8.050781 -0.578125 7.65625 -0.546875 C 7.269531 -0.523438 6.921875 -0.515625 6.609375 -0.515625 C 5.878906 -0.515625 5.179688 -0.585938 4.515625 -0.734375 C 3.859375 -0.878906 3.273438 -1.125 2.765625 -1.46875 C 2.253906 -1.8125 1.851562 -2.273438 1.5625 -2.859375 C 1.28125 -3.453125 1.140625 -4.195312 1.140625 -5.09375 L 1.140625 -11.84375 L 4.390625 -11.84375 L 4.390625 -5.125 C 4.390625 -4.363281 4.585938 -3.832031 4.984375 -3.53125 C 5.390625 -3.226562 5.972656 -3.078125 6.734375 -3.078125 C 7.046875 -3.078125 7.394531 -3.085938 7.78125 -3.109375 C 8.175781 -3.140625 8.523438 -3.175781 8.828125 -3.21875 Z M 8.828125 -3.21875 "/></g></g><g style="fill:#03fa6e;fill-opacity:1;"><g transform="translate(160.611732, 171.503518)"><path style="stroke:none" d="M 6.046875 0.265625 C 4.242188 0.265625 2.507812 -0.078125 0.84375 -0.765625 L 1.734375 -3.140625 C 2.421875 -2.835938 3.113281 -2.613281 3.8125 -2.46875 C 4.519531 -2.332031 5.171875 -2.265625 5.765625 -2.265625 C 6.460938 -2.265625 7.023438 -2.332031 7.453125 -2.46875 C 7.890625 -2.613281 8.109375 -2.898438 8.109375 -3.328125 C 8.109375 -3.640625 7.96875 -3.890625 7.6875 -4.078125 C 7.414062 -4.265625 6.847656 -4.472656 5.984375 -4.703125 L 4.875 -5 C 3.632812 -5.320312 2.722656 -5.785156 2.140625 -6.390625 C 1.566406 -7.003906 1.28125 -7.796875 1.28125 -8.765625 C 1.28125 -9.867188 1.695312 -10.734375 2.53125 -11.359375 C 3.363281 -11.984375 4.550781 -12.296875 6.09375 -12.296875 C 6.988281 -12.296875 7.863281 -12.203125 8.71875 -12.015625 C 9.582031 -11.835938 10.316406 -11.585938 10.921875 -11.265625 L 9.96875 -8.984375 C 9.445312 -9.253906 8.863281 -9.453125 8.21875 -9.578125 C 7.570312 -9.703125 6.992188 -9.765625 6.484375 -9.765625 C 5.890625 -9.765625 5.421875 -9.695312 5.078125 -9.5625 C 4.742188 -9.4375 4.578125 -9.207031 4.578125 -8.875 C 4.578125 -8.570312 4.734375 -8.332031 5.046875 -8.15625 C 5.359375 -7.976562 5.867188 -7.785156 6.578125 -7.578125 L 7.4375 -7.34375 C 8.769531 -6.976562 9.75 -6.488281 10.375 -5.875 C 11.007812 -5.269531 11.328125 -4.503906 11.328125 -3.578125 C 11.328125 -1.015625 9.566406 0.265625 6.046875 0.265625 Z M 6.046875 0.265625 "/></g></g><g style="fill:#03fa6e;fill-opacity:1;"><g transform="translate(171.98012, 171.503518)"><path style="stroke:none" d="M 10.171875 0 L 6.421875 0 C 5.003906 0 4.003906 -0.316406 3.421875 -0.953125 C 2.847656 -1.597656 2.5625 -2.566406 2.5625 -3.859375 L 2.5625 -8.828125 L 0.46875 -8.828125 L 0.46875 -11.84375 L 2.5625 -11.84375 L 2.5625 -15.484375 L 5.84375 -15.484375 L 5.84375 -11.84375 L 10.15625 -11.84375 L 10.15625 -8.828125 L 5.84375 -8.828125 L 5.84375 -4.890625 C 5.84375 -4.234375 6.003906 -3.757812 6.328125 -3.46875 C 6.660156 -3.175781 7.179688 -3.03125 7.890625 -3.03125 L 10.171875 -3.03125 Z M 10.171875 0 "/></g></g><g style="fill:#03fa6e;fill-opacity:1;"><g transform="translate(182.234328, 171.503518)"><path style="stroke:none" d="M 13.109375 -5.53125 L 13.109375 -5.25 L 4.234375 -5.25 C 4.398438 -4.488281 4.765625 -3.847656 5.328125 -3.328125 C 5.898438 -2.816406 6.632812 -2.5625 7.53125 -2.5625 C 8.257812 -2.5625 8.929688 -2.671875 9.546875 -2.890625 C 10.160156 -3.117188 10.679688 -3.382812 11.109375 -3.6875 L 12.53125 -1.15625 C 11.9375 -0.78125 11.21875 -0.441406 10.375 -0.140625 C 9.539062 0.160156 8.546875 0.3125 7.390625 0.3125 C 6.066406 0.3125 4.910156 0.046875 3.921875 -0.484375 C 2.941406 -1.015625 2.179688 -1.753906 1.640625 -2.703125 C 1.097656 -3.648438 0.828125 -4.75 0.828125 -6 L 0.828125 -6.03125 C 0.828125 -7.269531 1.082031 -8.359375 1.59375 -9.296875 C 2.101562 -10.242188 2.816406 -10.984375 3.734375 -11.515625 C 4.660156 -12.054688 5.75 -12.328125 7 -12.328125 C 8.257812 -12.328125 9.347656 -12.050781 10.265625 -11.5 C 11.179688 -10.957031 11.882812 -10.179688 12.375 -9.171875 C 12.863281 -8.160156 13.109375 -6.945312 13.109375 -5.53125 Z M 6.96875 -9.65625 C 6.257812 -9.65625 5.664062 -9.425781 5.1875 -8.96875 C 4.71875 -8.519531 4.40625 -7.953125 4.25 -7.265625 L 9.765625 -7.265625 C 9.640625 -7.953125 9.34375 -8.519531 8.875 -8.96875 C 8.40625 -9.425781 7.769531 -9.65625 6.96875 -9.65625 Z M 6.96875 -9.65625 "/></g></g><g style="fill:#03fa6e;fill-opacity:1;"><g transform="translate(195.397786, 171.503518)"><path style="stroke:none" d="M 4.390625 0 L 1.109375 0 L 1.109375 -11.71875 C 1.785156 -11.84375 2.457031 -11.945312 3.125 -12.03125 C 3.789062 -12.125 4.398438 -12.195312 4.953125 -12.25 C 5.515625 -12.3125 5.96875 -12.34375 6.3125 -12.34375 C 7.070312 -12.34375 7.765625 -12.222656 8.390625 -11.984375 C 9.015625 -11.742188 9.515625 -11.332031 9.890625 -10.75 C 10.316406 -11.3125 10.863281 -11.71875 11.53125 -11.96875 C 12.207031 -12.21875 12.972656 -12.34375 13.828125 -12.34375 C 14.859375 -12.34375 15.738281 -12.191406 16.46875 -11.890625 C 17.207031 -11.597656 17.773438 -11.117188 18.171875 -10.453125 C 18.578125 -9.785156 18.78125 -8.878906 18.78125 -7.734375 L 18.78125 0 L 15.5 0 L 15.5 -7.375 C 15.5 -7.988281 15.367188 -8.476562 15.109375 -8.84375 C 14.859375 -9.21875 14.328125 -9.40625 13.515625 -9.40625 C 12.722656 -9.40625 12.191406 -9.21875 11.921875 -8.84375 C 11.660156 -8.476562 11.53125 -7.988281 11.53125 -7.375 L 11.53125 0 L 8.28125 0 L 8.28125 -7.375 C 8.28125 -8.125 8.085938 -8.648438 7.703125 -8.953125 C 7.328125 -9.253906 6.816406 -9.40625 6.171875 -9.40625 C 5.910156 -9.40625 5.628906 -9.390625 5.328125 -9.359375 C 5.035156 -9.328125 4.722656 -9.273438 4.390625 -9.203125 Z M 4.390625 0 "/></g></g><g style="fill:#03fa6e;fill-opacity:1;"><g transform="translate(214.503547, 171.503518)"><path style="stroke:none" d="M 6.046875 0.265625 C 4.242188 0.265625 2.507812 -0.078125 0.84375 -0.765625 L 1.734375 -3.140625 C 2.421875 -2.835938 3.113281 -2.613281 3.8125 -2.46875 C 4.519531 -2.332031 5.171875 -2.265625 5.765625 -2.265625 C 6.460938 -2.265625 7.023438 -2.332031 7.453125 -2.46875 C 7.890625 -2.613281 8.109375 -2.898438 8.109375 -3.328125 C 8.109375 -3.640625 7.96875 -3.890625 7.6875 -4.078125 C 7.414062 -4.265625 6.847656 -4.472656 5.984375 -4.703125 L 4.875 -5 C 3.632812 -5.320312 2.722656 -5.785156 2.140625 -6.390625 C 1.566406 -7.003906 1.28125 -7.796875 1.28125 -8.765625 C 1.28125 -9.867188 1.695312 -10.734375 2.53125 -11.359375 C 3.363281 -11.984375 4.550781 -12.296875 6.09375 -12.296875 C 6.988281 -12.296875 7.863281 -12.203125 8.71875 -12.015625 C 9.582031 -11.835938 10.316406 -11.585938 10.921875 -11.265625 L 9.96875 -8.984375 C 9.445312 -9.253906 8.863281 -9.453125 8.21875 -9.578125 C 7.570312 -9.703125 6.992188 -9.765625 6.484375 -9.765625 C 5.890625 -9.765625 5.421875 -9.695312 5.078125 -9.5625 C 4.742188 -9.4375 4.578125 -9.207031 4.578125 -8.875 C 4.578125 -8.570312 4.734375 -8.332031 5.046875 -8.15625 C 5.359375 -7.976562 5.867188 -7.785156 6.578125 -7.578125 L 7.4375 -7.34375 C 8.769531 -6.976562 9.75 -6.488281 10.375 -5.875 C 11.007812 -5.269531 11.328125 -4.503906 11.328125 -3.578125 C 11.328125 -1.015625 9.566406 0.265625 6.046875 0.265625 Z M 6.046875 0.265625 "/></g></g></g></svg>