<svg xmlns="http://www.w3.org/2000/svg" xmlns:xlink="http://www.w3.org/1999/xlink" width="200" zoomAndPan="magnify" viewBox="0 0 150 149.999998" height="200" preserveAspectRatio="xMidYMid meet" version="1.2"><g id="609136cc6a"><path style=" stroke:none;fill-rule:nonzero;fill:#8c52ff;fill-opacity:1;" d="M 62.546875 30 L 37.75 30 C 33.640625 30 30.296875 33.34375 30.296875 37.449219 L 30.296875 62.246094 C 30.296875 66.355469 33.640625 69.699219 37.75 69.699219 L 62.546875 69.699219 C 66.652344 69.699219 69.996094 66.355469 69.996094 62.246094 L 69.996094 37.449219 C 69.996094 33.34375 66.65625 30 62.546875 30 Z M 67.015625 62.246094 C 67.015625 64.710938 65.011719 66.71875 62.546875 66.71875 L 37.75 66.71875 C 35.285156 66.71875 33.277344 64.710938 33.277344 62.246094 L 33.277344 37.449219 C 33.277344 34.984375 35.285156 32.980469 37.75 32.980469 L 62.546875 32.980469 C 65.011719 32.980469 67.015625 34.984375 67.015625 37.449219 Z M 67.015625 62.246094 "/><path style=" stroke:none;fill-rule:nonzero;fill:#8c52ff;fill-opacity:1;" d="M 112.25 30 L 87.453125 30 C 83.34375 30 80.003906 33.34375 80.003906 37.449219 L 80.003906 62.246094 C 80.003906 66.355469 83.34375 69.699219 87.453125 69.699219 L 112.25 69.699219 C 116.359375 69.699219 119.703125 66.355469 119.703125 62.246094 L 119.703125 37.449219 C 119.703125 33.34375 116.359375 30 112.25 30 Z M 116.722656 62.246094 C 116.722656 64.710938 114.714844 66.71875 112.25 66.71875 L 87.453125 66.71875 C 84.988281 66.71875 82.984375 64.710938 82.984375 62.246094 L 82.984375 37.449219 C 82.984375 34.984375 84.988281 32.980469 87.453125 32.980469 L 112.25 32.980469 C 114.714844 32.980469 116.722656 34.984375 116.722656 37.449219 Z M 116.722656 62.246094 "/><path style=" stroke:none;fill-rule:nonzero;fill:#8c52ff;fill-opacity:1;" d="M 62.546875 80.183594 L 37.75 80.183594 C 33.640625 80.183594 30.296875 83.527344 30.296875 87.632812 L 30.296875 112.429688 C 30.296875 116.535156 33.640625 119.878906 37.75 119.878906 L 62.546875 119.878906 C 66.652344 119.878906 69.996094 116.535156 69.996094 112.429688 L 69.996094 87.632812 C 69.996094 83.527344 66.65625 80.183594 62.546875 80.183594 Z M 67.015625 112.433594 C 67.015625 114.898438 65.011719 116.902344 62.546875 116.902344 L 37.75 116.902344 C 35.285156 116.902344 33.277344 114.898438 33.277344 112.433594 L 33.277344 87.636719 C 33.277344 85.171875 35.285156 83.164062 37.75 83.164062 L 62.546875 83.164062 C 65.011719 83.164062 67.015625 85.171875 67.015625 87.636719 Z M 67.015625 112.433594 "/><path style=" stroke:none;fill-rule:nonzero;fill:#8c52ff;fill-opacity:1;" d="M 112.25 80.183594 L 87.453125 80.183594 C 83.34375 80.183594 80.003906 83.527344 80.003906 87.632812 L 80.003906 112.429688 C 80.003906 116.535156 83.34375 119.878906 87.453125 119.878906 L 112.25 119.878906 C 116.359375 119.878906 119.703125 116.535156 119.703125 112.429688 L 119.703125 87.632812 C 119.703125 83.527344 116.359375 80.183594 112.25 80.183594 Z M 116.722656 112.433594 C 116.722656 114.898438 114.714844 116.902344 112.25 116.902344 L 87.453125 116.902344 C 84.988281 116.902344 82.984375 114.898438 82.984375 112.433594 L 82.984375 87.636719 C 82.984375 85.171875 84.988281 83.164062 87.453125 83.164062 L 112.25 83.164062 C 114.714844 83.164062 116.722656 85.171875 116.722656 87.636719 Z M 116.722656 112.433594 "/><path style=" stroke:none;fill-rule:nonzero;fill:#8c52ff;fill-opacity:1;" d="M 61.882812 48.359375 L 51.640625 48.359375 L 51.640625 38.113281 C 51.640625 37.292969 50.972656 36.625 50.148438 36.625 C 49.324219 36.625 48.660156 37.292969 48.660156 38.113281 L 48.660156 48.359375 L 38.414062 48.359375 C 37.589844 48.359375 36.921875 49.027344 36.921875 49.851562 C 36.921875 50.671875 37.589844 51.339844 38.414062 51.339844 L 48.660156 51.339844 L 48.660156 61.585938 C 48.660156 62.410156 49.324219 63.078125 50.148438 63.078125 C 50.972656 63.078125 51.640625 62.410156 51.640625 61.585938 L 51.640625 51.339844 L 61.882812 51.339844 C 62.707031 51.339844 63.375 50.671875 63.375 49.851562 C 63.375 49.027344 62.707031 48.359375 61.882812 48.359375 Z M 61.882812 48.359375 "/><path style=" stroke:none;fill-rule:nonzero;fill:#8c52ff;fill-opacity:1;" d="M 109.683594 91.507812 C 109.101562 90.925781 108.15625 90.925781 107.574219 91.507812 L 100.332031 98.75 L 93.085938 91.507812 C 92.503906 90.925781 91.5625 90.925781 90.980469 91.507812 C 90.398438 92.089844 90.398438 93.03125 90.980469 93.613281 L 98.222656 100.859375 L 90.980469 108.101562 C 90.398438 108.683594 90.398438 109.628906 90.980469 110.210938 C 91.273438 110.503906 91.652344 110.644531 92.035156 110.644531 C 92.414062 110.644531 92.796875 110.5 93.089844 110.210938 L 100.335938 102.964844 L 107.578125 110.210938 C 107.871094 110.503906 108.253906 110.644531 108.632812 110.644531 C 109.015625 110.644531 109.398438 110.5 109.6875 110.210938 C 110.269531 109.628906 110.269531 108.683594 109.6875 108.101562 L 102.445312 100.859375 L 109.6875 93.613281 C 110.265625 93.03125 110.265625 92.089844 109.683594 91.507812 Z M 109.683594 91.507812 "/><path style=" stroke:none;fill-rule:nonzero;fill:#8c52ff;fill-opacity:1;" d="M 59.496094 90.679688 C 58.917969 90.101562 57.972656 90.101562 57.390625 90.679688 L 40.796875 107.273438 C 40.214844 107.855469 40.214844 108.800781 40.796875 109.382812 C 41.089844 109.675781 41.46875 109.816406 41.851562 109.816406 C 42.234375 109.816406 42.613281 109.671875 42.90625 109.382812 L 59.5 92.789062 C 60.082031 92.207031 60.082031 91.265625 59.496094 90.679688 Z M 59.496094 90.679688 "/><path style=" stroke:none;fill-rule:nonzero;fill:#8c52ff;fill-opacity:1;" d="M 112.066406 48.359375 L 88.597656 48.359375 C 87.777344 48.359375 87.109375 49.027344 87.109375 49.851562 C 87.109375 50.671875 87.777344 51.339844 88.597656 51.339844 L 112.066406 51.339844 C 112.890625 51.339844 113.558594 50.671875 113.558594 49.851562 C 113.558594 49.027344 112.890625 48.359375 112.066406 48.359375 Z M 112.066406 48.359375 "/><path style=" stroke:none;fill-rule:nonzero;fill:#8c52ff;fill-opacity:1;" d="M 49.085938 92.957031 C 49.085938 90.023438 46.699219 87.632812 43.761719 87.632812 C 40.828125 87.632812 38.441406 90.019531 38.441406 92.957031 C 38.441406 95.890625 40.828125 98.277344 43.761719 98.277344 C 46.695312 98.277344 49.085938 95.886719 49.085938 92.957031 Z M 41.417969 92.957031 C 41.417969 91.664062 42.472656 90.613281 43.761719 90.613281 C 45.050781 90.613281 46.105469 91.664062 46.105469 92.957031 C 46.105469 94.246094 45.050781 95.296875 43.761719 95.296875 C 42.46875 95.296875 41.417969 94.246094 41.417969 92.957031 Z M 41.417969 92.957031 "/><path style=" stroke:none;fill-rule:nonzero;fill:#8c52ff;fill-opacity:1;" d="M 57.054688 101.765625 C 54.121094 101.765625 51.730469 104.152344 51.730469 107.085938 C 51.730469 110.023438 54.117188 112.410156 57.054688 112.410156 C 59.988281 112.410156 62.375 110.023438 62.375 107.085938 C 62.375 104.152344 59.984375 101.765625 57.054688 101.765625 Z M 57.054688 109.425781 C 55.761719 109.425781 54.710938 108.375 54.710938 107.085938 C 54.710938 105.792969 55.761719 104.742188 57.054688 104.742188 C 58.34375 104.742188 59.394531 105.792969 59.394531 107.085938 C 59.394531 108.375 58.34375 109.425781 57.054688 109.425781 Z M 57.054688 109.425781 "/></g></svg>