<svg xmlns="http://www.w3.org/2000/svg" xmlns:xlink="http://www.w3.org/1999/xlink" width="200" zoomAndPan="magnify" viewBox="0 0 150 149.999998" height="200" preserveAspectRatio="xMidYMid meet" version="1.2"><defs><clipPath id="c1db6c1072"><path d="M 26.933594 26.933594 L 122.933594 26.933594 L 122.933594 122.933594 L 26.933594 122.933594 Z M 26.933594 26.933594 "/></clipPath></defs><g id="88c611a6c7"><g clip-rule="nonzero" clip-path="url(#c1db6c1072)"><path style=" stroke:none;fill-rule:nonzero;fill:#ffde59;fill-opacity:1;" d="M 123.0625 74.996094 C 123.0625 69.589844 119.335938 64.351562 112.574219 60.191406 C 115.023438 52.722656 115.054688 46.484375 112.660156 42.074219 C 113.246094 41.304688 113.578125 40.378906 113.578125 39.398438 C 113.578125 36.9375 111.578125 34.933594 109.121094 34.933594 C 107.851562 34.933594 106.648438 35.480469 105.804688 36.417969 C 101.597656 35.011719 96.089844 35.355469 89.800781 37.417969 C 85.640625 30.65625 80.402344 26.933594 74.996094 26.933594 C 69.589844 26.933594 64.351562 30.65625 60.191406 37.421875 C 51.007812 34.40625 43.621094 35.078125 39.347656 39.347656 C 37.617188 41.082031 36.476562 43.328125 35.933594 46.023438 C 33.484375 46.03125 31.496094 48.027344 31.496094 50.484375 C 31.496094 52.941406 33.492188 54.941406 35.949219 54.941406 C 35.988281 54.941406 36.023438 54.933594 36.058594 54.933594 C 36.367188 56.613281 36.820312 58.375 37.414062 60.191406 C 30.65625 64.351562 26.933594 69.59375 26.933594 74.996094 C 26.933594 80.40625 30.65625 85.644531 37.421875 89.804688 C 34.40625 98.984375 35.078125 106.375 39.347656 110.644531 C 41.867188 113.164062 45.464844 114.433594 49.878906 114.433594 C 52.953125 114.433594 56.421875 113.8125 60.191406 112.574219 C 64.351562 119.335938 69.589844 123.0625 74.996094 123.0625 C 80.40625 123.0625 85.644531 119.335938 89.800781 112.574219 C 93.570312 113.8125 97.042969 114.4375 100.113281 114.4375 C 104.527344 114.4375 108.128906 113.164062 110.644531 110.648438 C 114.917969 106.375 115.589844 98.984375 112.570312 89.804688 C 119.335938 85.644531 123.0625 80.40625 123.0625 74.996094 Z M 93.363281 100.898438 C 92.960938 100.78125 92.542969 100.714844 92.125 100.714844 C 89.664062 100.714844 87.660156 102.714844 87.660156 105.171875 C 87.660156 106.828125 88.605469 108.332031 90.019531 109.09375 C 89.71875 109.675781 89.425781 110.21875 89.132812 110.730469 C 85.054688 109.285156 80.78125 107.160156 76.394531 104.410156 C 79.203125 102.53125 81.992188 100.449219 84.699219 98.191406 C 88.132812 97.84375 91.445312 97.3125 94.585938 96.625 C 94.21875 98.089844 93.808594 99.519531 93.363281 100.898438 Z M 60.871094 110.726562 C 58.644531 106.835938 56.773438 102 55.414062 96.625 C 58.554688 97.3125 61.867188 97.84375 65.296875 98.191406 C 68.003906 100.449219 70.789062 102.527344 73.597656 104.410156 C 69.21875 107.160156 64.945312 109.28125 60.871094 110.726562 Z M 60.871094 39.269531 C 64.960938 40.71875 69.234375 42.84375 73.605469 45.589844 C 70.835938 47.4375 68.050781 49.515625 65.296875 51.804688 C 61.867188 52.152344 58.558594 52.679688 55.414062 53.367188 C 56.773438 47.996094 58.644531 43.160156 60.871094 39.269531 Z M 89.121094 39.269531 C 91.351562 43.160156 93.222656 47.996094 94.578125 53.367188 C 91.4375 52.679688 88.125 52.152344 84.699219 51.804688 C 81.964844 49.523438 79.179688 47.445312 76.402344 45.589844 C 80.78125 42.835938 85.050781 40.714844 89.121094 39.269531 Z M 86.761719 96.417969 C 88.457031 94.925781 90.125 93.359375 91.742188 91.742188 C 93.367188 90.117188 94.933594 88.445312 96.414062 86.761719 C 96.0625 89.601562 95.582031 92.355469 94.976562 94.976562 C 92.359375 95.578125 89.609375 96.0625 86.761719 96.417969 Z M 55.015625 94.976562 C 54.410156 92.328125 53.925781 89.570312 53.574219 86.75 C 55.070312 88.453125 56.636719 90.125 58.253906 91.742188 C 59.871094 93.359375 61.539062 94.921875 63.234375 96.417969 C 60.386719 96.0625 57.636719 95.578125 55.015625 94.976562 Z M 63.234375 53.574219 C 61.566406 55.050781 59.894531 56.613281 58.253906 58.253906 C 56.636719 59.871094 55.070312 61.539062 53.574219 63.234375 C 53.933594 60.390625 54.414062 57.636719 55.015625 55.015625 C 57.636719 54.414062 60.390625 53.933594 63.234375 53.574219 Z M 65.917969 96.71875 C 63.671875 94.824219 61.457031 92.789062 59.332031 90.664062 C 57.210938 88.542969 55.179688 86.320312 53.277344 84.0625 C 52.996094 81.121094 52.847656 78.074219 52.847656 74.996094 C 52.847656 71.917969 52.996094 68.863281 53.277344 65.917969 C 55.175781 63.671875 57.207031 61.457031 59.332031 59.332031 C 61.5 57.171875 63.714844 55.136719 65.917969 53.277344 C 68.867188 52.996094 71.917969 52.847656 74.996094 52.847656 C 78.078125 52.847656 81.128906 52.996094 84.078125 53.277344 C 86.324219 55.175781 88.539062 57.207031 90.664062 59.332031 C 92.785156 61.457031 94.820312 63.671875 96.71875 65.917969 C 97 68.867188 97.144531 71.917969 97.144531 74.996094 C 97.144531 78.101562 96.996094 81.152344 96.710938 84.078125 C 94.835938 86.304688 92.804688 88.519531 90.664062 90.664062 C 88.535156 92.789062 86.320312 94.824219 84.078125 96.71875 C 78.171875 97.28125 71.820312 97.28125 65.917969 96.71875 Z M 51.570312 81.984375 C 49.71875 79.667969 48.019531 77.324219 46.488281 74.992188 C 48.023438 72.65625 49.722656 70.316406 51.570312 68 C 51.40625 70.296875 51.324219 72.640625 51.324219 74.996094 C 51.324219 77.351562 51.40625 79.691406 51.570312 81.984375 Z M 98.421875 68 C 100.257812 70.300781 101.960938 72.640625 103.511719 74.996094 C 101.953125 77.359375 100.25 79.703125 98.417969 81.992188 C 98.585938 79.710938 98.671875 77.367188 98.671875 74.996094 C 98.671875 72.640625 98.585938 70.296875 98.421875 68 Z M 91.742188 58.253906 C 90.125 56.636719 88.457031 55.070312 86.761719 53.578125 C 89.605469 53.933594 92.355469 54.417969 94.976562 55.019531 C 95.578125 57.636719 96.0625 60.390625 96.417969 63.234375 C 94.921875 61.539062 93.359375 59.871094 91.742188 58.253906 Z M 81.996094 51.570312 C 77.398438 51.246094 72.601562 51.246094 68.003906 51.570312 C 70.332031 49.714844 72.675781 48.015625 75.003906 46.492188 C 77.339844 48.023438 79.679688 49.722656 81.996094 51.570312 Z M 51.804688 65.296875 C 49.523438 68.03125 47.445312 70.8125 45.589844 73.59375 C 42.851562 69.246094 40.726562 64.976562 39.261719 60.875 C 43.164062 58.640625 48.003906 56.769531 53.371094 55.414062 C 52.679688 58.558594 52.152344 61.867188 51.804688 65.296875 Z M 45.589844 76.390625 C 47.441406 79.167969 49.519531 81.953125 51.804688 84.683594 C 52.140625 88.082031 52.671875 91.398438 53.371094 94.578125 C 48 93.222656 43.160156 91.351562 39.269531 89.121094 C 40.71875 85.035156 42.84375 80.757812 45.589844 76.390625 Z M 68 98.421875 C 70.296875 98.585938 72.640625 98.671875 74.996094 98.671875 C 77.351562 98.671875 79.695312 98.585938 81.992188 98.421875 C 79.695312 100.257812 77.351562 101.960938 74.996094 103.511719 C 72.640625 101.960938 70.296875 100.253906 68 98.421875 Z M 98.183594 84.695312 C 100.4375 82.003906 102.523438 79.214844 104.410156 76.394531 C 107.160156 80.777344 109.28125 85.046875 110.726562 89.121094 C 106.835938 91.351562 101.996094 93.222656 96.625 94.578125 C 97.316406 91.429688 97.84375 88.121094 98.183594 84.695312 Z M 104.410156 73.597656 C 102.53125 70.792969 100.449219 68.003906 98.191406 65.296875 C 97.84375 61.867188 97.3125 58.558594 96.625 55.414062 C 101.996094 56.773438 106.835938 58.640625 110.726562 60.871094 C 109.28125 64.945312 107.160156 69.21875 104.410156 73.597656 Z M 104.988281 37.753906 C 104.777344 38.277344 104.660156 38.828125 104.660156 39.398438 C 104.660156 41.855469 106.664062 43.855469 109.121094 43.855469 C 109.984375 43.855469 110.804688 43.609375 111.511719 43.15625 C 113.441406 47.078125 113.339844 52.777344 111.226562 59.402344 C 107.074219 57.066406 101.933594 55.121094 96.246094 53.746094 C 94.871094 48.058594 92.925781 42.914062 90.589844 38.765625 C 96.261719 36.949219 101.203125 36.601562 104.988281 37.753906 Z M 74.996094 28.457031 C 79.78125 28.457031 84.488281 31.820312 88.328125 37.933594 C 84.054688 39.480469 79.578125 41.738281 75.003906 44.671875 C 70.4375 41.746094 65.957031 39.484375 61.667969 37.933594 C 65.507812 31.820312 70.214844 28.457031 74.996094 28.457031 Z M 40.425781 40.425781 C 44.222656 36.628906 50.945312 36.058594 59.402344 38.769531 C 57.066406 42.917969 55.121094 48.058594 53.746094 53.746094 C 48.066406 55.117188 42.925781 57.0625 38.765625 59.402344 C 38.238281 57.753906 37.835938 56.160156 37.558594 54.636719 C 39.246094 53.988281 40.40625 52.347656 40.40625 50.484375 C 40.40625 48.550781 39.195312 46.890625 37.4375 46.28125 C 37.925781 43.90625 38.925781 41.933594 40.425781 40.425781 Z M 28.457031 74.996094 C 28.457031 70.214844 31.816406 65.507812 37.925781 61.667969 C 39.492188 65.976562 41.753906 70.449219 44.667969 74.992188 C 41.746094 79.558594 39.484375 84.035156 37.933594 88.324219 C 31.820312 84.488281 28.457031 79.78125 28.457031 74.996094 Z M 40.425781 109.566406 C 36.628906 105.769531 36.058594 99.050781 38.769531 90.59375 C 42.917969 92.929688 48.0625 94.875 53.746094 96.246094 C 55.121094 101.933594 57.066406 107.074219 59.402344 111.222656 C 50.945312 113.9375 44.222656 113.363281 40.425781 109.566406 Z M 74.996094 121.535156 C 70.214844 121.535156 65.507812 118.175781 61.667969 112.0625 C 65.941406 110.515625 70.417969 108.257812 74.996094 105.332031 C 79.578125 108.257812 84.054688 110.515625 88.328125 112.0625 C 84.488281 118.175781 79.78125 121.535156 74.996094 121.535156 Z M 109.566406 109.566406 C 105.773438 113.363281 99.058594 113.9375 90.605469 111.226562 C 90.890625 110.714844 91.183594 110.167969 91.480469 109.585938 C 91.691406 109.617188 91.90625 109.636719 92.125 109.636719 C 94.582031 109.636719 96.582031 107.632812 96.582031 105.171875 C 96.582031 103.730469 95.890625 102.402344 94.75 101.570312 C 95.308594 99.863281 95.8125 98.078125 96.25 96.246094 C 101.933594 94.875 107.074219 92.929688 111.222656 90.59375 C 113.9375 99.050781 113.363281 105.769531 109.566406 109.566406 Z M 112.0625 88.328125 C 110.515625 84.050781 108.257812 79.578125 105.332031 74.996094 C 108.257812 70.417969 110.515625 65.941406 112.0625 61.667969 C 118.175781 65.507812 121.535156 70.214844 121.535156 74.996094 C 121.535156 79.78125 118.175781 84.488281 112.0625 88.328125 Z M 112.0625 88.328125 "/></g><path style=" stroke:none;fill-rule:nonzero;fill:#ffde59;fill-opacity:1;" d="M 85.367188 72.777344 C 85.367188 67.058594 80.714844 62.410156 74.996094 62.410156 C 69.28125 62.410156 64.628906 67.058594 64.628906 72.777344 C 64.628906 78.5 69.28125 83.152344 74.996094 83.152344 C 80.714844 83.152344 85.367188 78.5 85.367188 72.777344 Z M 85.367188 72.777344 "/></g></svg>